<?xml version="1.0" encoding="UTF-8"?>
<svg version="1.1" xmlns="http://www.w3.org/2000/svg" width="500" height="500">
<path d="M0 0 C165 0 330 0 500 0 C500 165 500 330 500 500 C335 500 170 500 0 500 C0 335 0 170 0 0 Z " fill="#FF8181" transform="translate(0,0)"/>
<path d="M0 0 C165 0 330 0 500 0 C500 165 500 330 500 500 C335 500 170 500 0 500 C0 335 0 170 0 0 Z M101.75 56.25 C101.08581055 56.55518555 100.42162109 56.86037109 99.73730469 57.17480469 C78.07980642 67.36965027 62.26075479 84.5374319 54 107 C49.54539021 120.87192826 49.43206794 134.73848919 49.49829102 149.17211914 C49.49449937 151.55110492 49.48899242 153.93008849 49.48191833 156.30906677 C49.46805759 162.71812431 49.47906698 169.12691057 49.49562955 175.53595281 C49.50815505 181.58812814 49.5038574 187.640272 49.50049984 193.69245534 C49.49464389 205.68572106 49.50870384 217.67888124 49.53344727 229.67211914 C49.5573667 241.26753696 49.5644465 252.86281388 49.55395508 264.45825195 C49.54250556 277.13503003 49.54066497 289.81174321 49.55505317 302.48852056 C49.55657876 303.8442039 49.55809911 305.19988725 49.55961418 306.5555706 C49.560372 307.22231162 49.56112981 307.88905264 49.56191059 308.57599794 C49.56662194 313.23899746 49.56471399 317.9019583 49.56054878 322.56495857 C49.55574515 328.85821485 49.56601993 335.15127838 49.58750343 341.44449806 C49.59302535 343.74171041 49.59357939 346.03894146 49.58855057 348.33615494 C49.53512491 376.26184979 53.95850283 400.89755375 73.76953125 421.765625 C74.50558594 422.50296875 75.24164063 423.2403125 76 424 C77.02673828 425.04414062 77.02673828 425.04414062 78.07421875 426.109375 C94.211049 441.50051069 114.97987899 447.30846085 136.75854492 447.29052734 C138.22335142 447.29652362 139.68815479 447.30333167 141.1529541 447.31088257 C145.10573953 447.32843981 149.05843818 447.33323363 153.01125884 447.33451414 C155.48890743 447.33594236 157.96653443 447.34022463 160.44417763 447.34550858 C169.11099252 447.3639762 177.77774616 447.37218346 186.44458008 447.37060547 C194.48573768 447.36940557 202.52662623 447.39048652 210.56771582 447.4220928 C217.50228977 447.4483651 224.43677645 447.45896817 231.3713997 447.45769465 C235.49940211 447.45718814 239.6271652 447.46269673 243.75511742 447.48405075 C247.64346027 447.50361861 251.53134006 447.5034332 255.41970062 447.48901749 C256.83407848 447.48695089 258.24848678 447.49149935 259.66281319 447.5037384 C270.70264237 447.59296574 279.83387994 445.5372492 290.2938261 442.2872982 C292 442 292 442 294.0859375 443.37109375 C294.84132813 444.05300781 295.59671875 444.73492187 296.375 445.4375 C318.23860665 463.82865147 343.19984809 467.51455512 370.8671875 465.75390625 C394.5211637 462.89301387 416.10736162 448.48355004 430.71875 430.171875 C434.6535852 424.70083702 437.88972937 418.97004966 441 413 C441.72509766 411.68128906 441.72509766 411.68128906 442.46484375 410.3359375 C452.28704675 391.04978814 453.21242152 365.4307256 446.68896484 345.00292969 C441.39918563 329.62470551 433.45007832 316.64219372 422 305 C421.25234375 304.23945313 420.5046875 303.47890625 419.734375 302.6953125 C405.35185545 288.93190803 384.64166717 278.80646825 364.5078125 278.90234375 C363.30898438 278.90556641 362.11015625 278.90878906 360.875 278.91210938 C359.6375 278.92048828 358.4 278.92886719 357.125 278.9375 C355.86429687 278.94201172 354.60359375 278.94652344 353.3046875 278.95117188 C350.20307614 278.9629204 347.10156275 278.97934833 344 279 C344.00368717 278.19953719 344.00737434 277.39907438 344.01117325 276.57435513 C344.09975005 257.04136173 344.16581902 237.50840875 344.20724869 217.97525692 C344.22781949 208.52892249 344.25583447 199.08272263 344.30175781 189.63647461 C344.34179428 181.3971602 344.36747259 173.15794333 344.37635398 164.91853434 C344.38154045 160.56120218 344.39361431 156.20414889 344.42292023 151.84690666 C344.45035598 147.73384982 344.45838908 143.62118296 344.45243073 139.50804329 C344.45351853 138.00980627 344.46130317 136.51155426 344.4768219 135.01339722 C344.60586676 121.89651099 342.52699628 109.52541892 336.3125 97.8125 C335.9721875 97.15378906 335.631875 96.49507812 335.28125 95.81640625 C323.70889231 74.1024551 305.33207612 60.12226123 282.125 52.6875 C273.1051877 49.95387402 264.59460786 49.84693819 255.22460938 49.83886719 C253.82921215 49.83423224 252.43381617 49.82920668 251.03842163 49.82382202 C247.2610904 49.81075711 243.4837769 49.80426411 239.70642662 49.79981136 C237.33952476 49.79686975 234.97262762 49.79276284 232.60572815 49.78830719 C225.18027378 49.77464491 217.75483036 49.76497328 210.3293643 49.7611053 C201.79557816 49.75663407 193.26195295 49.73912446 184.72821569 49.7101047 C178.1079341 49.68838395 171.48769742 49.67839543 164.86738062 49.67706418 C160.92492623 49.67602313 156.98262336 49.67026688 153.04020691 49.65224457 C149.32351505 49.63558398 145.60708565 49.63369397 141.89036942 49.64238358 C139.9025504 49.64350288 137.91473938 49.6299235 135.92697144 49.6156311 C124.22700301 49.66894644 112.42694389 51.18640872 101.75 56.25 Z " fill="#FF4545" transform="translate(0,0)"/>
<path d="M0 0 C2.08009372 0.01609829 4.15824559 0.0000534 6.23828125 -0.01904297 C14.59013378 -0.0327924 22.10473436 0.88828506 30.08203125 3.39111328 C30.80874023 3.61009277 31.53544922 3.82907227 32.28417969 4.0546875 C56.26473038 11.63964687 75.00725232 28.50403945 87.08203125 50.39111328 C98.60292205 73.11507721 100.87052067 99.00903049 93.08203125 123.39111328 C84.00205004 148.7823291 66.06862955 167.954818 42.06176758 179.75952148 C21.64136454 189.30656192 -5.47502488 191.21294257 -26.86767578 183.70703125 C-51.46807347 174.4974689 -71.1760496 157.34957878 -82.88378906 133.71240234 C-93.09605707 110.79024836 -94.15827255 84.36608917 -85.66796875 60.82861328 C-75.82486102 36.67627134 -58.71029489 17.82544902 -34.85546875 7.01611328 C-34.1483374 6.69425049 -33.44120605 6.3723877 -32.71264648 6.04077148 C-21.97964961 1.41610354 -11.63769997 -0.10684329 0 0 Z " fill="#FFFEFE" transform="translate(352.91796875,278.60888671875)"/>
</svg>
